<mxfile host="app.diagrams.net" modified="2023-03-01T02:16:44.728Z" agent="5.0 (Windows NT 10.0; Win64; x64) AppleWebKit/537.36 (KHTML, like Gecko) Chrome/110.0.0.0 Safari/537.36" etag="Bf5pIWdm9m6mLk6UpKI4" version="20.8.23" type="github">
  <diagram name="Page-1" id="74b105a0-9070-1c63-61bc-23e55f88626e">
    <mxGraphModel dx="1973" dy="1196" grid="1" gridSize="10" guides="1" tooltips="1" connect="1" arrows="1" fold="1" page="1" pageScale="1.5" pageWidth="1169" pageHeight="826" background="none" math="0" shadow="0">
      <root>
        <mxCell id="0" style=";html=1;" />
        <mxCell id="1" style=";html=1;" parent="0" />
        <mxCell id="10b056a9c633e61c-30" value="Title" style="text;strokeColor=none;fillColor=none;html=1;fontSize=24;fontStyle=1;verticalAlign=middle;align=center;" parent="1" vertex="1">
          <mxGeometry x="80" y="40" width="1590" height="40" as="geometry" />
        </mxCell>
        <mxCell id="5wn7QCThYIIw2rzu8Sw5-3" value="Eureka" style="strokeWidth=2;dashed=0;align=center;fontSize=15;shape=rect;fillColor=#c0f5a9;verticalLabelPosition=middle;verticalAlign=middle;horizontal=1;labelPosition=center;" parent="1" vertex="1">
          <mxGeometry x="760" y="450" width="150" height="90" as="geometry" />
        </mxCell>
        <mxCell id="5wn7QCThYIIw2rzu8Sw5-10" style="edgeStyle=orthogonalEdgeStyle;rounded=0;orthogonalLoop=1;jettySize=auto;html=1;fontSize=15;" parent="1" source="5wn7QCThYIIw2rzu8Sw5-4" target="5wn7QCThYIIw2rzu8Sw5-6" edge="1">
          <mxGeometry relative="1" as="geometry" />
        </mxCell>
        <mxCell id="5wn7QCThYIIw2rzu8Sw5-13" value="Api Call" style="edgeLabel;html=1;align=center;verticalAlign=middle;resizable=0;points=[];fontSize=15;" parent="5wn7QCThYIIw2rzu8Sw5-10" vertex="1" connectable="0">
          <mxGeometry x="-0.1" y="-1" relative="1" as="geometry">
            <mxPoint as="offset" />
          </mxGeometry>
        </mxCell>
        <mxCell id="5wn7QCThYIIw2rzu8Sw5-4" value="Jmeter/Loadrunner" style="strokeWidth=2;dashed=0;align=center;fontSize=15;shape=rect;fillColor=#c0f5a9;verticalLabelPosition=middle;verticalAlign=middle;labelPosition=center;" parent="1" vertex="1">
          <mxGeometry x="500" y="970" width="150" height="90" as="geometry" />
        </mxCell>
        <mxCell id="5wn7QCThYIIw2rzu8Sw5-8" style="edgeStyle=orthogonalEdgeStyle;rounded=0;orthogonalLoop=1;jettySize=auto;html=1;entryX=1;entryY=0.5;entryDx=0;entryDy=0;fontSize=15;" parent="1" source="5wn7QCThYIIw2rzu8Sw5-5" target="5wn7QCThYIIw2rzu8Sw5-3" edge="1">
          <mxGeometry relative="1" as="geometry">
            <Array as="points">
              <mxPoint x="1095" y="495" />
            </Array>
          </mxGeometry>
        </mxCell>
        <mxCell id="5wn7QCThYIIw2rzu8Sw5-11" value="Register" style="edgeLabel;html=1;align=center;verticalAlign=middle;resizable=0;points=[];fontSize=15;" parent="5wn7QCThYIIw2rzu8Sw5-8" vertex="1" connectable="0">
          <mxGeometry x="-0.0472" y="-3" relative="1" as="geometry">
            <mxPoint as="offset" />
          </mxGeometry>
        </mxCell>
        <mxCell id="5wn7QCThYIIw2rzu8Sw5-5" value="StudentService" style="strokeWidth=2;dashed=0;align=center;fontSize=15;shape=rect;fillColor=#c0f5a9;verticalLabelPosition=middle;verticalAlign=middle;labelPosition=center;" parent="1" vertex="1">
          <mxGeometry x="1030" y="720" width="150" height="90" as="geometry" />
        </mxCell>
        <mxCell id="5wn7QCThYIIw2rzu8Sw5-7" value="Register" style="edgeStyle=orthogonalEdgeStyle;rounded=0;orthogonalLoop=1;jettySize=auto;html=1;entryX=0;entryY=0.5;entryDx=0;entryDy=0;fontSize=15;" parent="1" source="5wn7QCThYIIw2rzu8Sw5-6" target="5wn7QCThYIIw2rzu8Sw5-3" edge="1">
          <mxGeometry relative="1" as="geometry">
            <Array as="points">
              <mxPoint x="575" y="495" />
            </Array>
          </mxGeometry>
        </mxCell>
        <mxCell id="5wn7QCThYIIw2rzu8Sw5-9" style="edgeStyle=orthogonalEdgeStyle;rounded=0;orthogonalLoop=1;jettySize=auto;html=1;entryX=0;entryY=0.5;entryDx=0;entryDy=0;fontSize=15;" parent="1" source="5wn7QCThYIIw2rzu8Sw5-6" target="5wn7QCThYIIw2rzu8Sw5-5" edge="1">
          <mxGeometry relative="1" as="geometry">
            <Array as="points">
              <mxPoint x="1020" y="765" />
            </Array>
          </mxGeometry>
        </mxCell>
        <mxCell id="5wn7QCThYIIw2rzu8Sw5-12" value="Api Call" style="edgeLabel;html=1;align=center;verticalAlign=middle;resizable=0;points=[];fontSize=15;" parent="5wn7QCThYIIw2rzu8Sw5-9" vertex="1" connectable="0">
          <mxGeometry x="-0.0737" y="-1" relative="1" as="geometry">
            <mxPoint as="offset" />
          </mxGeometry>
        </mxCell>
        <mxCell id="5wn7QCThYIIw2rzu8Sw5-6" value="SchoolService" style="strokeWidth=2;dashed=0;align=center;fontSize=15;shape=rect;fillColor=#c0f5a9;verticalLabelPosition=middle;verticalAlign=middle;labelPosition=center;" parent="1" vertex="1">
          <mxGeometry x="500" y="720" width="150" height="90" as="geometry" />
        </mxCell>
      </root>
    </mxGraphModel>
  </diagram>
</mxfile>
